PathFileType	4	(X/Y/Z)	C:\Users\Public\Documents\Vicon Data\AADs Machine\Frameless Spring Test\Dec182020\10lbsSpring1.trc
DataRate	CameraRate	NumFrames	NumMarkers	Units	OrigDataRate	OrigDataStartFrame	OrigNumFrames
100.0	100.0	27	9	mm	100.0	651	1041	
Frame#	Time	Heel			MP5			Toe			MMAL			LMAL			Shank			SpringTop			LateralKnee			MedialKnee			
		X1	Y1	Z1	X2	Y2	Z2	X3	Y3	Z3	X4	Y4	Z4	X5	Y5	Z5	X6	Y6	Z6	X7	Y7	Z7	X8	Y8	Z8	X9	Y9	Z9	
651	6.5	-196.25725	46.81123	-769.56891	-238.64766	38.208157	-597.06787	-169.67183	39.392727	-529.38269	-121.72534	109.42238	-709.23779	-242.6944	120.16083	-696.72498	-157.85442	218.03314	-564.92212	-182.24947	205.97391	-707.25415	-183.96153	426.80365	-520.26721	-106.26128	418.95477	-526.0321
652	6.51	-196.27576	46.778336	-769.58899	-238.64772	38.21389	-597.06506	-169.68054	39.402863	-529.38208	-121.75826	109.36945	-709.25763	-242.65102	120.09793	-696.77808	-157.88086	217.98174	-564.91577	-182.26187	205.92694	-707.24664	-183.9489	426.78159	-520.15741	-106.24754	418.92722	-525.96149
653	6.52	-196.24454	46.810318	-769.56921	-238.63164	38.204372	-597.04541	-169.65277	39.392452	-529.36139	-121.72832	109.39614	-709.25031	-242.65056	120.10346	-696.74414	-157.84825	217.94292	-564.90619	-182.23462	205.96625	-707.21564	-183.8139	426.72888	-520.1438	-106.27482	418.92004	-525.83093
654	6.53	-196.27242	46.836445	-769.55835	-238.66637	38.219292	-597.04749	-169.68077	39.394226	-529.35687	-122.04786	109.26994	-709.1842	-242.70091	120.17297	-696.68481	-157.85797	217.9613	-564.8866	-182.25508	206.01784	-707.19623	-184.02376	426.80853	-520.03601	-106.34866	418.92029	-525.76361
655	6.54	-196.25946	46.822075	-769.56799	-238.65158	38.21648	-597.04962	-169.67032	39.403725	-529.37195	-121.73086	109.43554	-709.23682	-242.67416	120.14417	-696.7218	-157.7166	218.05466	-564.76331	-182.25166	205.98991	-707.19714	-184.09984	426.83728	-519.99878	-106.32358	418.87311	-525.80731
656	6.55	-196.22534	46.786716	-769.59064	-238.62944	38.209248	-597.04724	-169.62846	39.393242	-529.36841	-121.68556	109.37359	-709.26355	-242.60515	120.06657	-696.8147	-157.8273	217.96066	-564.86859	-182.22299	205.92949	-707.20941	-183.75896	426.75812	-520.02869	-106.19865	418.82004	-525.85034
657	6.56	-196.2746	46.821404	-769.56543	-238.63005	38.207767	-597.06445	-169.68016	39.366253	-529.3786	-122.03892	109.19497	-709.20947	-242.66269	120.11108	-696.72272	-157.84036	217.94232	-564.8562	-182.23657	205.96121	-707.2002	-183.99619	426.86737	-519.86981	-106.21082	418.84793	-525.78406
658	6.57	-196.25389	46.876278	-769.5553	-238.63293	38.217171	-597.04694	-169.64496	39.416821	-529.38245	-121.68584	109.47028	-709.21606	-242.6859	120.22079	-696.64764	-157.82262	217.95403	-564.85822	-182.19807	206.03217	-707.15619	-184.27591	427.0672	-519.69635	-106.14811	418.81934	-525.82349
659	6.58	-196.22246	46.773258	-769.59271	-238.62196	38.183727	-597.05725	-169.63699	39.374992	-529.37738	-121.6879	109.33609	-709.2533	-242.59531	120.08569	-696.80408	-157.78992	217.94411	-564.86987	-182.1656	205.94347	-707.1983	-184.13278	427.03268	-519.70319	-106.10483	418.7868	-525.84717
660	6.59	-196.26813	46.770077	-769.58594	-238.65286	38.198528	-597.02728	-169.66081	39.36731	-529.35535	-121.71827	109.34817	-709.24359	-242.6326	120.05238	-696.78534	-157.82033	217.9238	-564.85773	-182.25233	205.91635	-707.19867	-184.16432	426.96356	-519.7616	-106.18044	418.80634	-525.82074
661	6.6	-196.2666	46.849186	-769.54596	-238.63675	38.224773	-597.04901	-169.66351	39.415596	-529.36115	-121.68169	109.50714	-709.20605	-242.71613	120.23087	-696.64026	-157.84152	217.967	-564.87347	-182.26401	206.02299	-707.15839	-184.62279	427.12766	-519.69189	-106.35378	418.98849	-525.61945
662	6.61	-196.22902	46.837029	-769.55481	-238.63403	38.219208	-597.04419	-169.65034	39.411148	-529.35687	-121.67696	109.46503	-709.19946	-242.68407	120.14767	-696.72168	-157.71805	218.05344	-564.77838	-182.23792	205.99594	-707.1969	-184.60077	427.10876	-519.737	-106.27605	418.93491	-525.83801
663	6.62	-196.30048	46.694305	-769.60907	-238.62202	38.189728	-597.05573	-169.65352	39.371635	-529.36273	-122.10221	109.10069	-709.23389	-242.65903	120.00793	-696.84875	-157.855	217.9617	-564.93713	-182.28737	205.88832	-707.2843	-184.48491	427.02823	-519.87946	-106.30387	418.91064	-525.91144
664	6.63	-196.29994	46.811291	-769.54358	-238.63806	38.223083	-597.05255	-169.70401	39.380241	-529.35803	-122.05903	109.29427	-709.19757	-242.75414	120.13641	-696.68774	-157.74738	218.0547	-564.83588	-182.31876	205.97754	-707.23462	-184.75212	427.08774	-519.79431	-106.50212	419.03168	-525.71222
665	6.64	-196.23708	46.853855	-769.54407	-238.65323	38.236309	-597.05243	-169.68275	39.428074	-529.36096	-121.99858	109.33215	-709.16901	-242.73993	120.1993	-696.6734	-157.90097	218.00331	-564.94714	-182.29533	206.01393	-707.17358	-184.63484	427.10635	-519.82306	-106.46236	419.01779	-525.7746
666	6.65	-196.28625	46.770069	-769.60156	-238.62802	38.207611	-597.04041	-169.64473	39.388519	-529.35101	-122.11994	109.14749	-709.22864	-242.70734	120.06715	-696.81616	-157.89415	217.98248	-564.90619	-182.31384	205.93919	-707.24719	-184.47926	427.01282	-519.87512	-106.56618	419.12155	-525.52936
667	6.66	-196.2881	46.786888	-769.58295	-238.66615	38.182434	-597.05505	-169.703	39.374237	-529.35535	-122.10655	109.22437	-709.2041	-242.71722	120.07647	-696.7641	-157.90698	217.96413	-564.92719	-182.34251	205.95465	-707.24927	-184.75731	427.02863	-519.77863	-106.46301	419.04193	-525.73236
668	6.67	-196.25665	46.844143	-769.55383	-238.65477	38.221935	-597.04712	-169.66682	39.43103	-529.36041	-122.01567	109.31249	-709.17731	-242.74734	120.21918	-696.66046	-157.76268	218.10481	-564.81024	-182.2502	206.03172	-707.24042	-184.66312	427.09125	-519.82745	-106.57507	419.16721	-525.57813
669	6.68	-196.26926	46.778877	-769.5733	-238.63785	38.189228	-597.06659	-169.65637	39.388401	-529.36426	-122.06174	109.19882	-709.22302	-242.70119	120.10516	-696.75641	-157.88264	217.99954	-565.00458	-182.33333	205.93254	-707.26056	-184.64056	427.09219	-519.91345	-106.55679	419.16351	-525.68604
670	6.69	-196.31439	46.733002	-769.57703	-238.64262	38.203724	-597.0542	-169.67209	39.386158	-529.37573	-122.10654	109.1555	-709.24902	-242.69263	120.07159	-696.81555	-157.76553	218.11377	-564.86816	-182.3421	205.90138	-707.28851	-184.61113	427.10159	-519.98175	-106.47242	419.20651	-525.78302
671	6.7	-196.22581	46.80146	-769.56854	-238.6472	38.209934	-597.04303	-169.6571	39.419529	-529.34515	-121.67215	109.42375	-709.23871	-242.67775	120.12143	-696.76105	-157.72977	218.1467	-564.87933	-182.26042	205.94879	-707.27551	-184.44185	427.12442	-520.0733	-106.41412	419.19724	-525.81421
672	6.71	-196.25963	46.814133	-769.56732	-238.63104	38.203449	-597.07263	-169.65495	39.384727	-529.37933	-121.69437	109.42061	-709.23187	-242.70326	120.15646	-696.73254	-157.68158	218.17125	-564.88672	-182.26534	205.96429	-707.30682	-184.41866	427.13721	-520.12903	-106.34036	419.22324	-525.88123
673	6.72	-196.27205	46.792656	-769.57495	-238.63321	38.207848	-597.047	-169.64778	39.389694	-529.37598	-121.69138	109.38816	-709.26996	-242.6561	120.10711	-696.79053	-157.64604	218.20926	-564.91602	-182.25826	205.92966	-707.32367	-184.74106	427.24683	-520.0282	-106.30082	419.27905	-525.97424
674	6.73	-196.25317	46.743477	-769.58276	-238.61162	38.226822	-597.05176	-169.66325	39.385231	-529.36206	-121.68483	109.35039	-709.28961	-242.66663	120.06103	-696.82941	-157.67079	218.28421	-564.99707	-182.22472	205.8952	-707.39557	-184.70152	427.27954	-520.18317	-106.34747	419.33417	-526.1355
675	6.74	-196.29457	46.783493	-769.56909	-238.63422	38.236759	-597.06537	-169.67691	39.409939	-529.36713	-122.04933	109.20146	-709.26715	-242.71222	120.16733	-696.80426	-157.80553	218.30478	-565.20721	-182.28244	205.92523	-707.44678	-184.81996	427.38446	-520.45239	-106.40916	419.47598	-526.39374
676	6.75	-196.26892	46.781738	-769.56738	-238.6357	38.235157	-597.06201	-169.65529	39.414497	-529.3653	-122.01943	109.19909	-709.2597	-242.74498	120.20116	-696.83612	-157.83696	218.38689	-565.33362	-182.30121	205.90244	-707.53705	-183.1946	426.72034	-521.64459	-106.53078	419.62994	-526.67139
677	6.76	-196.25383	46.692368	-769.61224	-238.60619	38.184372	-597.09296	-169.68111	39.365963	-529.39081	-121.97822	109.13159	-709.36176	-242.72029	120.02488	-696.93475	-157.90076	218.52341	-565.48792	-182.30859	205.80013	-707.70093	-183.62277	426.91214	-521.97272	-106.80185	419.66522	-527.2298
